<svg width="27" height="17" viewBox="0 0 27 17" xmlns="http://www.w3.org/2000/svg">
<path d="M0.00518799 2.33876C0.00518799 1.48373 0.520291 1.02268 1.5505 0.955621L5.52034 0.980769C5.78677 0.980769 5.96439 1.10651 6.0532 1.35799C6.46173 2.61538 6.91911 3.70094 7.42533 4.61465C7.93155 5.52835 8.59319 6.58038 9.41025 7.77071C9.4813 7.9216 9.59676 7.99704 9.75662 7.99704C9.88095 7.99704 9.97864 7.93836 10.0497 7.82101L10.1296 7.54438L10.1563 3.19379C10.1563 2.89201 10.0808 2.69083 9.9298 2.59024C9.77882 2.48965 9.49906 2.4142 9.09053 2.36391C8.77081 2.31361 8.61096 2.12919 8.61096 1.81065C8.61096 1.74359 8.61984 1.69329 8.6376 1.65976C9.0106 0.57002 10.0763 0.0251479 11.8348 0.0251479L13.3268 0C14.0018 0 14.5613 0.15927 15.0053 0.477811C15.4494 0.796351 15.6714 1.29931 15.6714 1.98669V7.69527C15.7958 7.77909 15.9112 7.82101 16.0178 7.82101C16.2842 7.82101 16.5151 7.67012 16.7105 7.36834C18.6643 4.78649 19.7212 3.05966 19.881 2.18787C19.881 2.1711 19.8988 2.12919 19.9343 2.06213C20.0587 1.81065 20.2629 1.5927 20.5471 1.40828C20.8313 1.22387 21.08 1.09813 21.2931 1.03107C21.3642 0.997535 21.4441 0.980769 21.5329 0.980769H25.6626L25.9291 1.00592C26.2843 1.00592 26.5596 1.16519 26.755 1.48373C26.8261 1.58432 26.8749 1.69329 26.9015 1.81065C26.9282 1.92801 26.9459 2.04536 26.9548 2.16272C26.9637 2.28008 26.9682 2.34714 26.9682 2.36391V2.53994C26.8438 3.22732 26.5285 3.9608 26.0223 4.74038C25.5161 5.51997 24.8722 6.36243 24.0907 7.26775C23.3091 8.17308 22.8207 8.76825 22.6253 9.05326C22.4654 9.25444 22.3855 9.43886 22.3855 9.60651C22.3855 9.74063 22.4566 9.89152 22.5987 10.0592L26.4886 14.6864C26.7017 14.9546 26.8083 15.248 26.8083 15.5666C26.8083 15.9522 26.6484 16.2707 26.3287 16.5222C26.009 16.7737 25.6271 16.9162 25.1831 16.9497L24.7301 16.9749H20.6803C20.6626 16.9749 20.6271 16.979 20.5738 16.9874C20.5205 16.9958 20.485 17 20.4672 17C20.0764 17 19.7123 16.8407 19.3748 16.5222C19.2505 16.3881 18.4157 15.3989 16.8704 13.5547C16.7816 13.4374 16.6572 13.3284 16.4974 13.2278C16.4263 13.4961 16.3331 13.8817 16.2176 14.3846C16.1021 14.8876 16.0178 15.248 15.9645 15.466L15.8846 15.8935C15.7069 16.4803 15.3339 16.8323 14.7655 16.9497L14.3925 16.9749H11.7815C10.3072 16.9749 8.83742 16.3378 7.37205 15.0636C5.90667 13.7894 4.58783 12.1423 3.41552 10.122C2.24322 8.10182 1.15085 5.75049 0.138404 3.06805C0.0495934 2.8501 0.00518799 2.607 0.00518799 2.33876ZM16.0178 8.85207C15.6448 8.85207 15.3073 8.75567 15.0053 8.56287C14.7034 8.37007 14.5524 8.10602 14.5524 7.77071V1.98669C14.5524 1.65138 14.4636 1.41248 14.286 1.26997C14.1083 1.12747 13.7975 1.05621 13.3535 1.05621L11.8348 1.10651C11.071 1.10651 10.4937 1.23225 10.103 1.48373C10.8845 1.8358 11.2753 2.40582 11.2753 3.19379V7.61982C11.2398 8.03895 11.0621 8.38683 10.7424 8.66346C10.4227 8.94009 10.0675 9.0784 9.67669 9.0784C9.14382 9.0784 8.73529 8.83531 8.4511 8.34911C7.06565 6.37081 6.03544 4.4931 5.36048 2.71598L5.12069 2.06213L1.57714 2.03698C1.34623 2.03698 1.21746 2.04956 1.19081 2.0747C1.16417 2.09985 1.15085 2.1711 1.15085 2.28846C1.15085 2.43935 1.16861 2.59862 1.20413 2.76627L1.76364 4.17456C3.25566 7.81262 4.87646 10.6795 6.62603 12.7751C8.37561 14.8708 10.0941 15.9186 11.7815 15.9186H14.4458C14.5524 15.9186 14.6323 15.8893 14.6856 15.8306C14.7389 15.7719 14.7833 15.6588 14.8188 15.4911L14.8721 15.2396L15.3783 13.0266C15.5204 12.7249 15.6448 12.5237 15.7513 12.4231C15.9467 12.2387 16.1776 12.1465 16.4441 12.1465C16.8704 12.1465 17.3055 12.3895 17.7496 12.8757L20.0143 15.5917C20.1564 15.8097 20.3073 15.9186 20.4672 15.9186H24.8633C25.3962 15.9186 25.6626 15.7929 25.6626 15.5414C25.6626 15.4576 25.636 15.3738 25.5827 15.2899L21.7194 10.7382C21.4175 10.3861 21.2665 10.0089 21.2665 9.60651C21.2665 9.20414 21.4086 8.81854 21.6928 8.4497C21.9237 8.1144 22.3722 7.55695 23.0383 6.77737C23.7044 5.99778 24.2861 5.26849 24.7834 4.5895C25.2807 3.9105 25.6093 3.29438 25.7692 2.74112L25.8491 2.4142C25.8314 2.38067 25.8225 2.32618 25.8225 2.25074C25.8225 2.1753 25.8136 2.11243 25.7958 2.06213H21.6129C21.3464 2.16272 21.1333 2.31361 20.9734 2.51479L20.8136 2.9926C20.3695 4.14941 19.2061 5.93491 17.3233 8.34911C16.9503 8.68442 16.5151 8.85207 16.0178 8.85207Z"/>
</svg>
