<?xml version="1.0" standalone="no"?>
<!DOCTYPE svg PUBLIC "-//W3C//DTD SVG 20010904//EN"
"http://www.w3.org/TR/2001/REC-SVG-20010904/DTD/svg10.dtd">
<svg version="1.0" xmlns="http://www.w3.org/2000/svg"
width="512.000000pt" height="512.000000pt" viewBox="0 0 512.000000 512.000000"
preserveAspectRatio="xMidYMid meet">
<metadata>
Created by potrace 1.14, written by Peter Selinger 2001-2017
</metadata>
<g transform="translate(0.000000,512.000000) scale(0.100000,-0.100000)"
fill="#000000" stroke="none">
<path d="M3275 4121 c-85 -24 -140 -58 -181 -110 -33 -43 -35 -50 -30 -97 5
-41 -3 -89 -40 -235 -94 -383 -206 -754 -318 -1053 l-74 -198 -45 83 c-86 159
-156 315 -265 594 -144 369 -199 499 -288 684 -41 85 -74 160 -74 167 0 127
-282 148 -404 31 -96 -92 -128 -312 -87 -602 34 -249 41 -352 51 -785 5 -228
17 -541 25 -695 8 -154 15 -343 15 -419 0 -121 -3 -145 -21 -183 -17 -36 -19
-48 -10 -76 11 -33 79 -106 116 -125 94 -46 285 2 342 87 22 33 23 42 23 235
0 111 -9 408 -20 661 -11 253 -20 512 -20 575 l0 115 79 -183 c44 -101 105
-229 137 -285 103 -180 143 -268 199 -440 51 -155 54 -170 41 -195 -21 -40 -9
-77 33 -106 50 -35 112 -42 192 -22 89 23 159 57 207 100 44 41 57 72 42 110
-7 19 -3 42 16 98 13 39 43 158 65 262 41 190 83 339 138 491 34 94 34 95 52
-108 9 -97 10 -256 6 -530 -6 -406 2 -548 38 -707 19 -86 19 -109 -5 -145 -27
-41 -25 -77 6 -106 22 -20 38 -24 105 -28 146 -6 269 52 321 153 40 78 37 167
-14 431 -24 128 -28 275 -14 655 7 220 6 270 -15 495 -20 211 -24 317 -25 680
-1 413 -2 433 -24 510 -13 49 -21 104 -20 142 1 53 -2 63 -22 77 -30 22 -154
20 -233 -3z"/>
</g>
</svg>
