<svg width="20" height="18" viewBox="0 0 20 18" xmlns="http://www.w3.org/2000/svg">
<path fill-rule="evenodd" clip-rule="evenodd" d="M19.466 0.152905C19.6445 0.302216 19.7307 0.534898 19.6924 0.764481L17.0662 16.5214C17.0296 16.7411 16.8841 16.9273 16.6796 17.0159C16.4752 17.1045 16.2398 17.0833 16.0545 16.9597L8.17601 11.7074C8.0229 11.6054 7.91965 11.4437 7.89142 11.2619C7.86319 11.08 7.91257 10.8947 8.02752 10.751L10.6381 7.48773L6.27822 10.3944C6.08218 10.525 5.83115 10.5407 5.62042 10.4353L0.368119 7.80915C0.132881 7.69153 -0.00946491 7.44488 0.00638775 7.18235C0.0222405 6.91983 0.193232 6.6921 0.440914 6.60364L18.824 0.0382579C19.0432 -0.0400244 19.2874 0.00359465 19.466 0.152905ZM2.33145 7.32275L5.86687 9.09046L13.4283 4.0495C13.6976 3.86994 14.0577 3.91349 14.2764 4.1521C14.4952 4.3907 14.5074 4.75314 14.3052 5.00591L9.50021 11.0121L15.938 15.3039L18.2135 1.65058L2.33145 7.32275Z" fill="currentColor"/>
</svg>
