<svg width="24" height="19" viewBox="0 0 24 19" xmlns="http://www.w3.org/2000/svg">
<path d="M15.8561 8.79275L10.6197 5.30184C10.5211 5.23691 10.4068 5.19985 10.2889 5.19459C10.1709 5.18934 10.0538 5.21608 9.94978 5.27198C9.8458 5.32789 9.75887 5.41087 9.69821 5.51215C9.63755 5.61343 9.6054 5.72924 9.60519 5.84729V12.8291C9.60532 12.9481 9.63789 13.0648 9.6994 13.1667C9.76091 13.2686 9.84903 13.3518 9.95428 13.4073C10.0576 13.4631 10.1743 13.4895 10.2916 13.4837C10.4089 13.478 10.5224 13.4402 10.6197 13.3746L15.8561 9.88366C15.9461 9.82395 16.0199 9.7429 16.071 9.64772C16.1221 9.55255 16.1488 9.44621 16.1488 9.3382C16.1488 9.23019 16.1221 9.12385 16.071 9.02868C16.0199 8.93351 15.9461 8.85245 15.8561 8.79275ZM10.9143 11.6073V7.06911L14.3179 9.3382L10.9143 11.6073ZM23.3943 3.04366C23.2993 2.67547 23.1183 2.33511 22.866 2.05061C22.6138 1.76611 22.2975 1.54561 21.9434 1.40729C18.2234 -0.0217993 12.2561 1.91553e-05 12.0052 1.91553e-05C11.7543 1.91553e-05 5.78701 -0.0217993 2.06701 1.40729C1.71283 1.54561 1.39659 1.76611 1.14433 2.05061C0.892077 2.33511 0.711026 2.67547 0.616097 3.04366C0.332461 4.11275 0.00518799 6.07638 0.00518799 9.3382C0.00518799 12.6 0.332461 14.5637 0.616097 15.6327C0.711026 16.0009 0.892077 16.3413 1.14433 16.6258C1.39659 16.9103 1.71283 17.1308 2.06701 17.2691C5.78701 18.6982 11.7543 18.6764 12.0052 18.6764H12.0816C12.8343 18.6764 18.3979 18.6327 21.9434 17.2691C22.2975 17.1308 22.6138 16.9103 22.866 16.6258C23.1183 16.3413 23.2993 16.0009 23.3943 15.6327C23.6779 14.5637 24.0052 12.6 24.0052 9.3382C24.0052 6.07638 23.6779 4.11275 23.3943 3.04366ZM22.1288 15.3055C22.0859 15.472 22.0042 15.6259 21.8905 15.7548C21.7767 15.8838 21.6341 15.984 21.4743 16.0473C17.9834 17.3891 12.0706 17.3673 12.0052 17.3673C11.9397 17.3673 6.02701 17.3891 2.5361 16.0473C2.37626 15.984 2.23365 15.8838 2.1199 15.7548C2.00615 15.6259 1.92448 15.472 1.88155 15.3055C1.61973 14.3018 1.31428 12.4582 1.31428 9.3382C1.31428 6.2182 1.61973 4.37457 1.88155 3.37093C1.92448 3.20445 2.00615 3.05047 2.1199 2.92156C2.23365 2.79264 2.37626 2.69243 2.5361 2.62911C6.02701 1.28729 11.9397 1.30911 12.0052 1.30911C12.0706 1.30911 17.9834 1.28729 21.4743 2.62911C21.6341 2.69243 21.7767 2.79264 21.8905 2.92156C22.0042 3.05047 22.0859 3.20445 22.1288 3.37093C22.3906 4.37457 22.6961 6.2182 22.6961 9.3382C22.6961 12.4582 22.3906 14.3018 22.1288 15.3055Z" fill="currentColor"/>
</svg>
